<svg preserveAspectRatio="none" overflow="visible" style="display: block;" width="12" height="12" viewBox="0 0 12 12" fill="none" xmlns="http://www.w3.org/2000/svg">
<path id="Vector" d="M6.76521 8.89916L3.10085 5.2348C3.62414 4.71151 4.14743 4.18822 4.67072 3.66493C4.96005 3.3756 4.95978 2.90643 4.67032 2.61722C3.79761 1.74532 2.92631 0.872416 2.0539 0L0.212717 1.84118C0.074263 1.97963 -0.00492723 2.16743 0.000237925 2.36316C0.0697017 4.99551 1.10558 7.42825 2.83907 9.16094C4.57569 10.8968 7.01222 11.9302 9.63685 11.9998C9.83258 12.0049 10.0204 11.9258 10.1588 11.7873L12 9.94612C11.1277 9.07378 10.2553 8.20144 9.38299 7.3291C9.09373 7.03984 8.6247 7.04002 8.33548 7.32932C7.81219 7.85275 7.28859 8.37577 6.76521 8.89916Z" fill="#7683A0"/>
</svg>
