<svg width="35" height="27" viewBox="0 0 35 27" fill="none" xmlns="http://www.w3.org/2000/svg">
<circle cx="27" cy="8" r="8" fill="white"/>
<path fill-rule="evenodd" clip-rule="evenodd" d="M28.7452 6.99257L28.7452 4.39236C28.7452 3.98474 28.4147 3.6543 28.0071 3.6543L25.9942 3.6543C25.5866 3.6543 25.2561 3.98474 25.2561 4.39236L25.2561 6.99257L23.6061 6.99257C22.9407 6.99257 22.6151 7.8039 23.0959 8.26392L26.4904 11.5118C26.7758 11.7848 27.2255 11.7848 27.5109 11.5118L30.9054 8.26393C31.3862 7.8039 31.0606 6.99257 30.3952 6.99257L28.7452 6.99257Z" fill="#227E01"/>
<path d="M17.6748 6C17.56 6.56543 17.5 7.1507 17.5 7.75C17.5 12.5825 21.4175 16.5 26.25 16.5V23C26.25 25.2091 24.4591 27 22.25 27H4C1.79086 27 4.02666e-08 25.2091 0 23V10C0 7.79086 1.79086 6 4 6H17.6748Z" fill="#F1F2F4"/>
<g clip-path="url(#clip0_2966_12528)">
<rect x="6.25" y="13" width="2" height="11" rx="1" fill="#737A8E"/>
<rect x="12.25" y="8" width="2" height="16" rx="1" fill="#737A8E"/>
<rect x="18.25" y="17" width="2" height="7" rx="1" fill="#737A8E"/>
</g>
<defs>
<clipPath id="clip0_2966_12528">
<rect width="14" height="16" fill="white" transform="translate(6.25 8)"/>
</clipPath>
</defs>
</svg>
