<svg width="36" height="36" viewBox="0 0 36 36" fill="none" xmlns="http://www.w3.org/2000/svg">
<circle cx="27" cy="9" r="8" fill="white"/>
<path fill-rule="evenodd" clip-rule="evenodd" d="M25.2563 9.66172L25.2563 12.2619C25.2563 12.6696 25.5867 13 25.9944 13L28.0073 13C28.4149 13 28.7453 12.6696 28.7453 12.2619L28.7453 9.66172L30.3954 9.66172C31.0608 9.66172 31.3864 8.8504 30.9056 8.39037L27.5111 5.1425C27.2257 4.86946 26.7759 4.86946 26.4906 5.1425L23.096 8.39037C22.6152 8.8504 22.9408 9.66172 23.6063 9.66172L25.2563 9.66172Z" fill="#C2122D"/>
<path d="M17.6748 8C17.56 8.56543 17.5 9.1507 17.5 9.75C17.5 14.5825 21.4175 18.5 26.25 18.5V25C26.25 27.2091 24.4591 29 22.25 29H4C1.79086 29 4.02666e-08 27.2091 0 25V12C0 9.79086 1.79086 8 4 8H17.6748Z" fill="#F1F2F4"/>
<g clip-path="url(#clip0_3048_135293)">
<rect x="6.25" y="15" width="2" height="11" rx="1" fill="#737A8E"/>
<rect x="12.25" y="10" width="2" height="16" rx="1" fill="#737A8E"/>
<rect x="18.25" y="19" width="2" height="7" rx="1" fill="#737A8E"/>
</g>
<defs>
<clipPath id="clip0_3048_135293">
<rect width="14" height="16" fill="white" transform="translate(6.25 10)"/>
</clipPath>
</defs>
</svg>
