<svg width="36" height="36" viewBox="0 0 36 36" fill="none" xmlns="http://www.w3.org/2000/svg">
<circle cx="27" cy="9" r="8" fill="white"/>
<path fill-rule="evenodd" clip-rule="evenodd" d="M28.7452 7.99257L28.7452 5.39236C28.7452 4.98474 28.4147 4.6543 28.0071 4.6543L25.9942 4.6543C25.5866 4.6543 25.2561 4.98474 25.2561 5.39236L25.2561 7.99257L23.6061 7.99257C22.9407 7.99257 22.6151 8.8039 23.0959 9.26392L26.4904 12.5118C26.7758 12.7848 27.2255 12.7848 27.5109 12.5118L30.9054 9.26393C31.3862 8.8039 31.0606 7.99257 30.3952 7.99257L28.7452 7.99257Z" fill="#227E01"/>
<path d="M17.6748 8C17.56 8.56543 17.5 9.1507 17.5 9.75C17.5 14.5825 21.4175 18.5 26.25 18.5V25C26.25 27.2091 24.4591 29 22.25 29H4C1.79086 29 4.02666e-08 27.2091 0 25V12C0 9.79086 1.79086 8 4 8H17.6748Z" fill="#F1F2F4"/>
<g clip-path="url(#clip0_3048_135281)">
<rect x="6.25" y="15" width="2" height="11" rx="1" fill="#737A8E"/>
<rect x="12.25" y="10" width="2" height="16" rx="1" fill="#737A8E"/>
<rect x="18.25" y="19" width="2" height="7" rx="1" fill="#737A8E"/>
</g>
<defs>
<clipPath id="clip0_3048_135281">
<rect width="14" height="16" fill="white" transform="translate(6.25 10)"/>
</clipPath>
</defs>
</svg>
